<svg width="20" height="20" viewBox="0 0 20 20" fill="none" xmlns="http://www.w3.org/2000/svg">
<g clip-path="url(#clip0_155_12214)">
<path fill-rule="evenodd" clip-rule="evenodd" d="M15.9591 2.72484C14.2049 0.968642 11.8721 0.00102539 9.38671 0C4.26551 0 0.0975586 4.16783 0.0955078 9.29042C0.0948047 10.928 0.522568 12.5265 1.33567 13.9355L0.0175781 18.75L4.943 17.4579C6.30014 18.1983 7.82806 18.5884 9.38293 18.5889H9.38686C14.5075 18.5889 18.6759 14.4207 18.6778 9.29786C18.6789 6.81518 17.7134 4.48096 15.9591 2.72484ZM9.38671 17.0197H9.38349C7.99787 17.0191 6.63887 16.6468 5.45302 15.9433L5.17119 15.7759L2.24836 16.5426L3.02848 13.6929L2.84478 13.4008C2.07176 12.1712 1.66353 10.7501 1.66424 9.29097C1.66585 5.0332 5.1302 1.5692 9.38982 1.5692C11.4525 1.56987 13.3915 2.37416 14.8494 3.83385C16.3074 5.29353 17.1099 7.23378 17.1092 9.29727C17.1074 13.5554 13.6433 17.0197 9.38671 17.0197ZM13.6226 11.236C13.3905 11.1197 12.2491 10.5583 12.0362 10.4807C11.8236 10.4032 11.6686 10.3646 11.514 10.597C11.3592 10.8293 10.9144 11.3523 10.7789 11.5071C10.6434 11.6621 10.5081 11.6815 10.2759 11.5653C10.0437 11.4491 9.29572 11.2039 8.40893 10.413C7.71884 9.79737 7.25297 9.03714 7.11747 8.80485C6.9822 8.57229 7.1163 8.45877 7.2193 8.33103C7.47061 8.01896 7.72227 7.69177 7.79964 7.53694C7.87711 7.38196 7.83832 7.24637 7.78019 7.13021C7.72227 7.01405 7.258 5.87135 7.06459 5.40638C6.876 4.95389 6.68475 5.01498 6.54216 5.00792C6.4069 5.00115 6.25207 4.99977 6.09723 4.99977C5.94249 4.99977 5.69094 5.05778 5.4781 5.29034C5.26535 5.52278 4.6657 6.08434 4.6657 7.22704C4.6657 8.36973 5.49756 9.47361 5.6136 9.62856C5.72962 9.78354 7.25068 12.1284 9.57943 13.1339C10.1333 13.3733 10.5657 13.516 10.9029 13.623C11.4591 13.7997 11.9651 13.7748 12.3652 13.715C12.8112 13.6483 13.7386 13.1534 13.9322 12.6111C14.1256 12.0688 14.1256 11.604 14.0674 11.5071C14.0096 11.4103 13.8547 11.3523 13.6226 11.236Z" fill="#3080D0"/>
</g>
<defs>
<clipPath id="clip0_155_12214">
<rect width="20" height="20" fill="white"/>
</clipPath>
</defs>
</svg>
